# xmcd
#
# Track frame offsets: 
#        150
#        19530
#        38110
#        56180
#        74860
#        91750
#        112275
#        130962
#        150437
#        169350
#        191580
#
# Disc length: 2831 seconds
#
# Revision: 3
# Processed by: cddbd v1.5.2PL0 Copyright (c) Steve Scherf et al.
# Submitted via: ExactAudioCopy v1.0b6
#
DISCID=9c0b0d0b
DTITLE=相楽ハル子 - BITTER KISS 32DH-548
DYEAR=1986
DGENRE=JPop
TTITLE0=午前0時のSANDBAG
TTITLE1=Teenage of Last
TTITLE2=踊らせてトゥナイト
TTITLE3=まいなぁBOY
TTITLE4=KissでLong Good-bye
TTITLE5=ステキな瞳のPretender
TTITLE6=ヴァージン・ハート (ビター・ヴァージョン)
TTITLE7=Funky Monkey Town
TTITLE8=ビター・キッスをきめさせて
TTITLE9=Cool Catと呼ばれた
TTITLE10=バイ・バイ・ゲーム
EXTD=YEAR: 1986
EXTT0=
EXTT1=
EXTT2=
EXTT3=
EXTT4=
EXTT5=
EXTT6=
EXTT7=
EXTT8=
EXTT9=
EXTT10=
PLAYORDER=
